<?xml version="1.0" encoding="UTF-8" standalone="no"?>
<svg
   xmlns:svg="http://www.w3.org/2000/svg"
   xmlns="http://www.w3.org/2000/svg"
   version="1.1"
   id="svg2"
   xml:space="preserve"
   width="815.4"
   height="625.6"
   viewBox="0 0 815.4 625.6"><title
     id="title4549">EFF-logo-plain</title><g
     id="g10"
     transform="matrix(1.3333333,0,0,-1.3333333,0,625.60002)"><g
       id="g4530"
       transform="translate(-1.1865012,-323.91484)"><g
         id="g4545"
         transform="translate(0.96403226,1.3348139)"><g
           id="g14"><g
             id="g16"><g
               id="g22"
               transform="translate(184.3604,492.1987)"><path
                 d="M 0,0 V 51.199 H 51.632 C 52.963,32.91 57.852,15.64 65.605,0 Z M 0,122.898 H 65.605 C 59.314,110.25 54.89,96.459 52.728,81.921 H 0 Z m 189.48,76.797 c -40.948,0 -77.712,-17.79 -103.027,-46.092 H -81.927 V -30.719 H 86.453 C 111.768,-59.007 148.532,-76.8 189.48,-76.8 c 76.365,0 138.261,61.876 138.261,138.246 0,76.37 -61.896,138.249 -138.261,138.249 z"
                 style="fill:none;stroke:#ffffff;stroke-width:24.69400024;stroke-linecap:butt;stroke-linejoin:miter;stroke-miterlimit:4;stroke-dasharray:none;stroke-opacity:1"
                 id="path24" /></g><g
               id="g26"
               transform="translate(235.5742,553.645)"><path
                 d="m 0,0 c 0,76.37 61.909,138.249 138.267,138.249 76.364,0 138.26,-61.879 138.26,-138.249 0,-76.37 -61.896,-138.246 -138.26,-138.246 C 61.909,-138.246 0,-76.37 0,0"
                 style="fill:#ed1c24;fill-opacity:1;fill-rule:evenodd;stroke:none"
                 id="path28" /></g><g
               id="g30"
               transform="translate(102.4336,645.8013)"><path
                 d="M 0,0 H 230.441 V -30.704 H 81.927 v -40.978 h 143.376 v -30.721 H 81.927 v -51.2 h 148.514 v -30.718 H 0 Z"
                 style="fill:#110b00;fill-opacity:1;fill-rule:evenodd;stroke:none"
                 id="path32" /></g><g
               id="g34"
               transform="translate(363.5967,645.8013)"><path
                 d="m 0,0 v -81.912 h 15.353 v 30.737 h 10.259 v 15.347 H 15.353 V -15.33 H 30.709 V 0 Z"
                 style="fill:#ffffff;fill-opacity:1;fill-rule:evenodd;stroke:none"
                 id="path36" /></g><g
               id="g38"
               transform="translate(363.5967,543.3979)"><path
                 d="m 0,0 v -81.918 h 15.353 v 30.719 h 10.259 v 15.368 H 15.353 v 20.486 H 30.709 V 0 Z"
                 style="fill:#ffffff;fill-opacity:1;fill-rule:evenodd;stroke:none"
                 id="path40" /></g></g></g></g></g></g></svg>